<svg width="64" height="64" viewBox="0 0 64 64" fill="none" xmlns="http://www.w3.org/2000/svg">
    <style>
        circle {
          color: #1c1b21;
        }
        path {
          color: #f5f5f5;
        }


        @media (prefers-color-scheme: dark) {
            circle {
                color: #f5f5f5;
            }
            path {
                color: #1c1b21;
            }
        }
    </style>
    <circle cx="32" cy="32" r="32" fill="currentColor"/>
    <path d="M23.15 40.85L36.65 36.7L40.8 23.2L27.3 27.35L23.15 40.85ZM31.988 34C31.4293 34 30.9583 33.8043 30.575 33.413C30.1917 33.022 30 32.547 30 31.988C30 31.4293 30.1957 30.9583 30.587 30.575C30.978 30.1917 31.453 30 32.012 30C32.5707 30 33.0417 30.1957 33.425 30.587C33.8083 30.978 34 31.453 34 32.012C34 32.5707 33.8043 33.0417 33.413 33.425C33.022 33.8083 32.547 34 31.988 34ZM32.0135 52C29.2555 52 26.6638 51.475 24.2385 50.425C21.8128 49.375 19.6917 47.9417 17.875 46.125C16.0583 44.3083 14.625 42.186 13.575 39.758C12.525 37.33 12 34.7357 12 31.975C12 29.2143 12.525 26.62 13.575 24.192C14.625 21.764 16.0583 19.65 17.875 17.85C19.6917 16.05 21.814 14.625 24.242 13.575C26.67 12.525 29.2643 12 32.025 12C34.7857 12 37.38 12.525 39.808 13.575C42.236 14.625 44.35 16.05 46.15 17.85C47.95 19.65 49.375 21.7667 50.425 24.2C51.475 26.6333 52 29.2288 52 31.9865C52 34.7445 51.475 37.3362 50.425 39.7615C49.375 42.1872 47.95 44.3053 46.15 46.116C44.35 47.9263 42.2333 49.3597 39.8 50.416C37.3667 51.472 34.7712 52 32.0135 52ZM32.0245 49C36.7415 49 40.75 47.3418 44.05 44.0255C47.35 40.7095 49 36.6928 49 31.9755C49 27.2585 47.35 23.25 44.05 19.95C40.75 16.65 36.7415 15 32.0245 15C27.3072 15 23.2905 16.65 19.9745 19.95C16.6582 23.25 15 27.2585 15 31.9755C15 36.6928 16.6582 40.7095 19.9745 44.0255C23.2905 47.3418 27.3072 49 32.0245 49Z"
          fill="currentColor"/>
</svg>


